<?xml version="1.0" encoding="UTF-8"?>
<svg xmlns="http://www.w3.org/2000/svg" width="511" height="566" viewBox="0 0 511 566" fill="none">
  <path d="M509 565C484.054 520.38 436.854 526.094 414.655 535.077C413.902 535.381 413.116 534.669 413.271 533.872C427.525 460.485 379.208 469.751 351.038 484.596C350.234 485.02 349.32 484.189 349.584 483.319C367.478 424.189 317.756 426.469 289.203 435.421C288.595 435.612 287.975 435.197 287.909 434.563L275.884 319.003L265.941 333.591C268.592 379.438 253.788 403.404 247.159 410.698C227.272 397.152 215.119 311.709 243.845 315.877C264.551 318.882 257.51 338.468 249.717 350.7C248.336 352.867 245.45 353.454 243.42 351.878C229.619 341.164 225.402 322.435 225.063 313.793C242.74 298.789 274.411 312.404 288.037 321.087C285.385 263.57 239.794 261.694 217.329 267.946C241.193 254.609 271.465 266.557 283.618 274.198L288.037 180.419C315.436 197.091 323.023 268.641 323.391 302.331C316.32 283.992 296.876 282.881 288.037 284.618C311.901 95.3936 266.309 21.6906 240.53 8.49219C179.544 56.0066 190.077 208.9 202.966 279.408C174.683 276.073 163.193 299.553 159.879 311.709C154.576 234.186 183.448 193.27 198.547 182.503L205.176 272.114C229.04 265.445 246.054 272.809 251.578 277.324C210.921 268.988 199.284 301.637 198.547 319.003L218.434 315.877L203.102 434.74C203.029 435.312 202.454 435.696 201.887 435.593C150.232 426.187 154.291 462.739 164.276 486.18C164.71 487.198 163.249 488.34 162.344 487.703C150.131 479.098 126.869 471.095 105.743 491.019C86.3386 509.32 98.7345 530.24 112.163 543.021C113.049 543.865 113.256 543.619 112.268 542.897C88.6765 525.668 44.3024 510.413 1.89062 550.412" stroke="url(#paint0_linear_2356_128969)" stroke-width="4"></path>
  <path d="M234.943 99.0621L240.071 9.68707C240.14 8.48606 241.881 8.40699 242.059 9.5968L255.391 98.9719C255.482 99.5762 255.013 100.119 254.402 100.119H235.942C235.367 100.119 234.911 99.636 234.943 99.0621Z" stroke="#512DA8" stroke-width="4"></path>
  <path d="M245.222 155.655C261.469 155.655 274.842 143.205 274.842 127.605C274.842 112.005 261.469 99.5557 245.222 99.5557C228.975 99.5557 215.602 112.005 215.602 127.605C215.602 143.205 228.975 155.655 245.222 155.655Z" stroke="#512DA8" stroke-width="4"></path>
  <defs>
    <linearGradient id="paint0_linear_2356_128969" x1="255.445" y1="8.49219" x2="264.11" y2="528.635" gradientUnits="userSpaceOnUse">
      <stop stop-color="#512DA8"></stop>
      <stop offset="0.510417" stop-color="#512DA8"></stop>
      <stop offset="0.625" stop-color="#FF8A65"></stop>
      <stop offset="1" stop-color="#DCD5EE" stop-opacity="0.49"></stop>
    </linearGradient>
  </defs>
</svg>
