<?xml version="1.0" encoding="UTF-8"?>
<svg xmlns="http://www.w3.org/2000/svg" id="Layer_1" data-name="Layer 1" viewBox="0 0 758.06 471.89">
  <defs>
    <style>.cls-1{fill:#ed6b52;}.cls-2{fill:#f7c13f;}.cls-3,.cls-8{fill:#fff;}.cls-3{stroke:#4265ae;stroke-width:5px;}.cls-3,.cls-4,.cls-6{stroke-miterlimit:10;}.cls-4{fill:#4265ae;stroke:#fff;stroke-width:0.5px;}.cls-5,.cls-6{fill:#010101;}.cls-6{stroke:#010101;}.cls-7{fill:#4265ad;}</style>
  </defs>
  <circle class="cls-1" cx="510.29" cy="174.99" r="2.87"></circle>
  <circle class="cls-1" cx="544.94" cy="174.99" r="2.87"></circle>
  <circle class="cls-1" cx="579.6" cy="174.99" r="2.87"></circle>
  <circle class="cls-1" cx="614.26" cy="174.99" r="2.87"></circle>
  <circle class="cls-1" cx="648.91" cy="174.99" r="2.87"></circle>
  <circle class="cls-1" cx="683.57" cy="174.99" r="2.87"></circle>
  <circle class="cls-1" cx="718.23" cy="174.99" r="2.87"></circle>
  <circle class="cls-1" cx="522.61" cy="205.8" r="2.87"></circle>
  <circle class="cls-1" cx="557.27" cy="205.8" r="2.87"></circle>
  <circle class="cls-1" cx="591.92" cy="205.8" r="2.87"></circle>
  <circle class="cls-1" cx="626.58" cy="205.8" r="2.87"></circle>
  <circle class="cls-1" cx="661.24" cy="205.8" r="2.87"></circle>
  <circle class="cls-1" cx="695.89" cy="205.8" r="2.87"></circle>
  <circle class="cls-1" cx="730.55" cy="205.8" r="2.87"></circle>
  <circle class="cls-1" cx="510.29" cy="240.45" r="2.87"></circle>
  <circle class="cls-1" cx="544.94" cy="240.45" r="2.87"></circle>
  <circle class="cls-1" cx="579.6" cy="240.45" r="2.87"></circle>
  <circle class="cls-1" cx="614.26" cy="240.45" r="2.87"></circle>
  <circle class="cls-1" cx="648.91" cy="240.45" r="2.87"></circle>
  <circle class="cls-1" cx="683.57" cy="240.45" r="2.87"></circle>
  <circle class="cls-1" cx="718.23" cy="240.45" r="2.87"></circle>
  <circle class="cls-1" cx="522.61" cy="271.64" r="2.87"></circle>
  <circle class="cls-1" cx="557.27" cy="271.64" r="2.87"></circle>
  <circle class="cls-1" cx="591.92" cy="271.64" r="2.87"></circle>
  <circle class="cls-1" cx="626.58" cy="271.64" r="2.87"></circle>
  <circle class="cls-1" cx="661.24" cy="271.64" r="2.87"></circle>
  <circle class="cls-1" cx="695.89" cy="271.64" r="2.87"></circle>
  <circle class="cls-1" cx="730.55" cy="271.64" r="2.87"></circle>
  <circle class="cls-1" cx="510.29" cy="306.3" r="2.87"></circle>
  <circle class="cls-1" cx="544.94" cy="306.3" r="2.87"></circle>
  <circle class="cls-1" cx="579.6" cy="306.3" r="2.87"></circle>
  <circle class="cls-1" cx="614.26" cy="306.3" r="2.87"></circle>
  <circle class="cls-1" cx="648.91" cy="306.3" r="2.87"></circle>
  <circle class="cls-1" cx="683.57" cy="306.3" r="2.87"></circle>
  <circle class="cls-1" cx="718.23" cy="306.3" r="2.87"></circle>
  <circle class="cls-1" cx="522.61" cy="337.11" r="2.87"></circle>
  <circle class="cls-1" cx="557.27" cy="337.11" r="2.87"></circle>
  <circle class="cls-1" cx="591.92" cy="337.11" r="2.87"></circle>
  <circle class="cls-1" cx="626.58" cy="337.11" r="2.87"></circle>
  <circle class="cls-1" cx="661.24" cy="337.11" r="2.87"></circle>
  <circle class="cls-1" cx="695.89" cy="337.11" r="2.87"></circle>
  <circle class="cls-1" cx="730.55" cy="337.11" r="2.87"></circle>
  <circle class="cls-1" cx="510.29" cy="371.76" r="2.87"></circle>
  <circle class="cls-1" cx="544.94" cy="371.76" r="2.87"></circle>
  <circle class="cls-1" cx="579.6" cy="371.76" r="2.87"></circle>
  <circle class="cls-1" cx="614.26" cy="371.76" r="2.87"></circle>
  <circle class="cls-1" cx="648.91" cy="371.76" r="2.87"></circle>
  <circle class="cls-1" cx="683.57" cy="371.76" r="2.87"></circle>
  <circle class="cls-1" cx="718.23" cy="371.76" r="2.87"></circle>
  <circle class="cls-1" cx="57.25" cy="16.62" r="2.87"></circle>
  <circle class="cls-2" cx="91.91" cy="16.62" r="2.87"></circle>
  <circle class="cls-2" cx="126.57" cy="16.62" r="2.87"></circle>
  <circle class="cls-1" cx="161.22" cy="16.62" r="2.87"></circle>
  <circle class="cls-1" cx="195.88" cy="16.62" r="2.87"></circle>
  <circle class="cls-1" cx="230.54" cy="16.62" r="2.87"></circle>
  <circle class="cls-1" cx="265.19" cy="16.62" r="2.87"></circle>
  <circle class="cls-1" cx="69.58" cy="47.42" r="2.87"></circle>
  <circle class="cls-2" cx="104.23" cy="47.42" r="2.87"></circle>
  <circle class="cls-1" cx="138.89" cy="47.42" r="2.87"></circle>
  <circle class="cls-1" cx="173.55" cy="47.42" r="2.87"></circle>
  <circle class="cls-1" cx="208.2" cy="47.42" r="2.87"></circle>
  <circle class="cls-1" cx="242.86" cy="47.42" r="2.87"></circle>
  <circle class="cls-1" cx="277.52" cy="47.42" r="2.87"></circle>
  <circle class="cls-1" cx="57.25" cy="82.08" r="2.87"></circle>
  <circle class="cls-2" cx="91.91" cy="82.08" r="2.87"></circle>
  <circle class="cls-2" cx="126.57" cy="82.08" r="2.87"></circle>
  <circle class="cls-1" cx="161.22" cy="82.08" r="2.87"></circle>
  <circle class="cls-1" cx="195.88" cy="82.08" r="2.87"></circle>
  <circle class="cls-1" cx="230.54" cy="82.08" r="2.87"></circle>
  <circle class="cls-1" cx="265.19" cy="82.08" r="2.87"></circle>
  <circle class="cls-1" cx="69.58" cy="113.27" r="2.87"></circle>
  <circle class="cls-2" cx="104.23" cy="113.27" r="2.87"></circle>
  <circle class="cls-1" cx="138.89" cy="113.27" r="2.87"></circle>
  <circle class="cls-1" cx="173.55" cy="113.27" r="2.87"></circle>
  <circle class="cls-1" cx="208.2" cy="113.27" r="2.87"></circle>
  <circle class="cls-1" cx="242.86" cy="113.27" r="2.87"></circle>
  <circle class="cls-1" cx="277.52" cy="113.27" r="2.87"></circle>
  <circle class="cls-1" cx="57.25" cy="147.93" r="2.87"></circle>
  <circle class="cls-2" cx="91.91" cy="147.93" r="2.87"></circle>
  <circle class="cls-2" cx="126.57" cy="147.93" r="2.87"></circle>
  <circle class="cls-1" cx="161.22" cy="147.93" r="2.87"></circle>
  <circle class="cls-1" cx="195.88" cy="147.93" r="2.87"></circle>
  <circle class="cls-1" cx="230.54" cy="147.93" r="2.87"></circle>
  <circle class="cls-1" cx="265.19" cy="147.93" r="2.87"></circle>
  <circle class="cls-1" cx="69.58" cy="178.73" r="2.87"></circle>
  <circle class="cls-2" cx="104.23" cy="178.73" r="2.87"></circle>
  <circle class="cls-1" cx="138.89" cy="178.73" r="2.87"></circle>
  <circle class="cls-1" cx="173.55" cy="178.73" r="2.87"></circle>
  <circle class="cls-1" cx="208.2" cy="178.73" r="2.87"></circle>
  <circle class="cls-1" cx="242.86" cy="178.73" r="2.87"></circle>
  <circle class="cls-1" cx="277.52" cy="178.73" r="2.87"></circle>
  <circle class="cls-1" cx="57.25" cy="213.39" r="2.87"></circle>
  <circle class="cls-2" cx="91.91" cy="213.39" r="2.87"></circle>
  <circle class="cls-1" cx="126.57" cy="213.39" r="2.87"></circle>
  <circle class="cls-1" cx="161.22" cy="213.39" r="2.87"></circle>
  <circle class="cls-1" cx="195.88" cy="213.39" r="2.87"></circle>
  <circle class="cls-1" cx="230.54" cy="213.39" r="2.87"></circle>
  <circle class="cls-1" cx="265.19" cy="213.39" r="2.87"></circle>
  <rect class="cls-3" x="109.71" y="240.25" width="635.9" height="67" rx="33.5"></rect>
  <path class="cls-4" d="M694.51,250.91a17.23,17.23,0,1,0,10.84,30.59L717,293.16a1.79,1.79,0,0,0,2.52,0,1.76,1.76,0,0,0,0-2.51L707.88,279a17.22,17.22,0,0,0-13.37-28.08Zm0,3.56a13.67,13.67,0,1,1-13.66,13.66,13.63,13.63,0,0,1,13.66-13.66Z"></path>
  <rect class="cls-2" x="226.28" y="68.69" width="185.06" height="185.06" rx="31.6"></rect>
  <path class="cls-5" d="M394,213.58h-25.6v-77.4h12.86v68.55a2.95,2.95,0,1,0,5.89,0v-71.5a3,3,0,0,0-2.94-2.95H365.47a3,3,0,0,0-3,2.95v80.35H331v-47.9h12.92v39a2.95,2.95,0,1,0,5.89,0v-42a3,3,0,0,0-2.94-2.95H328.07a3,3,0,0,0-2.95,2.95v50.85H293.68V148H306.6v56.75a2.95,2.95,0,1,0,5.89,0V145a3,3,0,0,0-2.95-2.95H290.73a3,3,0,0,0-3,2.95v68.55H256.34V183.37H269.2v21.36a2.95,2.95,0,0,0,5.9,0V180.42a3,3,0,0,0-3-2.94H253.39a3,3,0,0,0-2.95,2.94v33.16h-6.85a3,3,0,0,0,0,5.9H394a2.95,2.95,0,1,0,0-5.9Z"></path>
  <path class="cls-5" d="M262.77,139.37a3.37,3.37,0,0,0,1.24-.3l36.21-16.93,36.28,14a3,3,0,0,0,2.78-.35l32-22.77-.36,3.18a2.9,2.9,0,0,0,2.66,3.19h.29a3.06,3.06,0,0,0,3-2.71l.95-9.56v-.47a2.35,2.35,0,0,0,0-.53,2.91,2.91,0,0,0-.42-.89,3,3,0,0,0-2.06-1.24L366,103a3,3,0,1,0-.53,5.9H367l-29.49,21.06-36.4-13.69a3.15,3.15,0,0,0-2.3,0l-37.28,17.7a2.94,2.94,0,0,0-1.42,3.95A2.89,2.89,0,0,0,262.77,139.37Z"></path>
  <rect class="cls-1" x="226.34" y="265.94" width="185.06" height="185.06" rx="31.6"></rect>
  <path class="cls-6" d="M316.54,294.71a2.44,2.44,0,0,0-1.73.71,2.45,2.45,0,0,0,1.73,4.18h5.26V310a56.44,56.44,0,0,0-31.34,18.44,2.44,2.44,0,0,0,.27,3.46,2.43,2.43,0,0,0,3.44-.27,51.81,51.81,0,1,1,0,67.76h0a2.45,2.45,0,0,0-3.71,3.19A56.6,56.6,0,1,0,344.67,310V299.6h5.25a2.43,2.43,0,0,0,2.43-2.44,2.44,2.44,0,0,0-2.43-2.45Zm10.14,4.89h13.1v9.62a56.64,56.64,0,0,0-13.1,0Zm32.91,37a2.45,2.45,0,0,0-1.73.72l-18.11,18.15a11.83,11.83,0,0,0-6.52-1.95,12,12,0,1,0,11.95,12,11.85,11.85,0,0,0-2-6.54l18.11-18.18h0a2.43,2.43,0,0,0-1.73-4.16Zm-93.2,8.93a2.44,2.44,0,0,0-2.45,2.43,2.45,2.45,0,0,0,.72,1.73,2.48,2.48,0,0,0,1.73.71H306.5a2.48,2.48,0,0,0,1.73-.71A2.45,2.45,0,0,0,309,348a2.44,2.44,0,0,0-2.45-2.43Zm66.84,12.88a7,7,0,0,1,4.8,1.87l.18.2.21.18a7.07,7.07,0,1,1-5.19-2.25Zm-82.79,4.63a2.5,2.5,0,0,0-1.73.71,2.45,2.45,0,0,0,1.73,4.18h40.11a2.46,2.46,0,0,0,1.74-.71,2.42,2.42,0,0,0,.71-1.74,2.45,2.45,0,0,0-.72-1.73,2.48,2.48,0,0,0-1.73-.71Zm15.95,17.52a2.49,2.49,0,0,0-1.74.72,2.46,2.46,0,0,0-.71,1.74,2.44,2.44,0,0,0,2.45,2.43H306.5a2.45,2.45,0,0,0,1.74-4.17,2.49,2.49,0,0,0-1.74-.72Z"></path>
  <rect class="cls-7" x="26.75" y="174.67" width="185.06" height="185.06" rx="31.6"></rect>
  <path class="cls-8" d="M119.74,212.06h3.82a52.09,52.09,0,0,1,35.64,15.05c-3.45,3.53-7,6.92-10.37,10.44-5.25-4.75-11.59-8.42-18.5-9.72A38.91,38.91,0,0,0,83.45,261a40.09,40.09,0,0,0,8.71,31,38.55,38.55,0,0,0,28.09,13.83c10.08.57,20.59-2.52,27.93-9.58,5.77-5,8.43-12.53,9.29-19.87-11.95,0-23.9.07-35.86,0V261.53H172c2.59,15.92-1.15,33.85-13.25,45.22a49.24,49.24,0,0,1-30.61,13.76,56.18,56.18,0,0,1-32.18-6.34A55.4,55.4,0,0,1,70.2,284.86a53.1,53.1,0,0,1-.36-35.93,54.82,54.82,0,0,1,19.8-26.28A56.57,56.57,0,0,1,119.74,212.06Z"></path>
</svg>
